<svg version="1.1" xmlns="http://www.w3.org/2000/svg" viewBox="0 0 257 69.5" width="514" height="139">
  <!-- svg-source:excalidraw -->
  
  <defs>
    <style>
      @font-face {
        font-family: "Virgil";
        src: url("https://excalidraw.com/FG_Virgil.woff2");
      }
      @font-face {
        font-family: "Cascadia";
        src: url("https://excalidraw.com/Cascadia.woff2");
      }
    </style>
  </defs>
  <g transform="translate(10 10.5) rotate(0 118.5 24.5)"><path d="M10.26521925441921 0.6486300695687532 L225.64318190328777 0.40865360386669636 L230.96186224929988 3.0526359546929602 L235.6847002338618 5.539988743141295 L236.24583892337978 38.882857965305455 L234.55793700926006 47.05237399227918 L224.8324813079089 50.455214070156224 L10.017286760732533 48.07422732003034 L4.183215184137227 46.980153487995274 L-0.9055122304707763 42.64412294514478 L0.8180600833147764 12.8282816875726 L1.2978408169001345 1.1990725863724956 L10.745316786691548 -0.5633896123617887" stroke="none" stroke-width="0" fill="#616161"></path><path d="M12.870021684095265 1.0667129624634981 M12.339693753976844 0.7267622161589357 C68.95377288536383 0.9109780742437013, 126.4879742860589 1.7141775147379406, 224.02672502873799 -0.8381697888353968 M11.52082627840019 -0.7357113445549504 C60.25870860428231 -1.2499220678829106, 107.5650312982112 -1.4288617031991335, 225.22575371622113 0.23867771009818742 M224.75 0 C234.13132651957372 0.8457596767693758, 238.6653573345393 4.547228879605731, 235.21645985357463 10.983591901138427 M225.45191411487758 -1.9037607442587614 C233.10717821080857 0.7827472745440898, 236.59368951776997 5.470045607195546, 236.4998809681274 11.8042124777101 M235.052435265854 13.352718038484456 C238.51882847737986 20.18199758525007, 237.95790245723444 25.781218461971736, 237.0185219515115 34.823121411725886 M237.28326439019293 11.70537900272757 C237.52309240117202 20.072106884280224, 236.7621454419149 25.314926722925165, 237.91280754562467 36.883034848608084 M237 36.75000000000001 C235.90411691181362 45.54411682176094, 232.56310322197774 50.13896142132581, 224.20035432092845 49.05342553742231 M235.8067688178271 38.28760533221067 C235.41748826662078 43.09278471857931, 231.711150541498 47.53112198403106, 226.75903981188313 50.160759410168986 M223.97494505283095 48.96192920302947 C160.69446169119325 45.599137175100246, 92.71220415672495 46.63692437289581, 12.895580434716425 48.09389219650163 M225.1732374833261 49.66447563330992 C159.05447382101215 50.45048907373208, 93.37586235523618 49.60034003870806, 11.965126074310936 49.34297106305842 M12.250000000000002 49.00000000000001 C5.558064225440225 47.734892891719944, 0.014776213094592094 46.17924895572166, -0.886010305956006 36.14652119763196 M10.35967497341335 49.12064163573087 C5.021548703902711 50.59415275445209, -2.0523898436687884 44.20652293056871, -0.5837418808601795 38.54566899826751 M1.5962849725037813 35.02190773002804 C-0.7127607738645747 30.222554882662376, 0.8839136088220403 24.099637505877766, 0.6679853666573763 12.571633918210866 M-0.45735515002161264 35.75955330673606 C0.06307193913031364 27.60349822691642, 0.024289133925922163 18.21989740887657, -0.7902257824316621 11.261256241239609 M0 12.250000000000002 C-0.34644742496311665 4.719682938729724, 5.315135422473153 0.3186448682099581, 12.950041754171254 -0.28448439948260784 M1.3064333628863096 11.094859885051848 C-0.6830737455748022 4.230560692058256, 3.8951663440403843 1.9912598400376735, 12.516238038334997 -0.823651531431824" stroke="#616161" stroke-width="1" fill="none"></path></g><g transform="translate(22 10) rotate(0 28.5 23)"><text x="0" y="32" font-family="Virgil, Segoe UI Emoji" font-size="36px" fill="#ffffff" text-anchor="start" style="white-space: pre;" direction="ltr">npm</text></g><g transform="translate(92 11.5) rotate(0 77 23)"><path d="M13.415624184533954 1.0950116384774446 L148.83805094473067 1.3071530926972628 L149.9306875895709 4.220636175945401 L153.02416156046095 9.80268500931561 L151.61902217380705 38.13185183890164 L151.15917812101546 45.45270453579724 L143.25845996849242 45.62113909609616 L6.474057657644153 45.48719214089215 L3.908083004876971 43.07472841627896 L1.5200697015970945 38.78456579335034 L-0.9745891857892275 10.71478776820004 L1.3250462841242552 1.0591809619218107 L12.099212927743793 0.6072351206094027" stroke="none" stroke-width="0" fill="#148ecb"></path><path d="M11.346506936475635 -1.2636693846434355 M13.2725577224046 -0.8661818075925112 C60.607092594448496 0.2991236962657422, 110.23922153692696 0.4710755266528577, 144.3877723682672 0.6599886249750853 M11.85035293456167 -0.11349577363580465 C39.182011754903954 0.11765503698028623, 68.65825427733364 -0.3158803302701563, 141.99953987356278 0.28923674765974283 M142.50000000000003 0 C150.15947803171974 0.9974024761468172, 155.61492608301344 1.9302864739050465, 153.49409256689253 10.842296468093991 M140.52504853717986 -0.88206179253757 C152.42914595563587 -1.0622421682812273, 154.7082948968746 2.136300366030385, 156.29449428180234 10.233476880099625 M155.5319894421846 10.16236369125545 C153.1635907984432 18.817743977624925, 152.46689207321967 22.695214031450455, 153.05950801260772 36.01127658598125 M154.63909124489876 11.073482506908476 C153.5080164415855 18.00254448885098, 153.41969216299245 22.05818670913577, 154.5521274423227 34.2437683576718 M154.00000000000003 34.5 C153.1964896153659 43.91688999223212, 151.19681503685814 44.29197751171887, 141.3847863506526 45.521932350471616 M154.04646818153563 33.5655909050256 C155.14370100656527 40.557954577511794, 148.62541107196984 43.8511883883737, 141.50936296442526 43.959655770566314 M141.09837459214035 44.13993720524013 C103.45557025512682 43.52232477155514, 62.59058459792287 45.800958425672725, 11.42223029024899 47.97834060899913 M141.5113523518667 46.98937695566565 C100.2740596051328 46.63827887727879, 57.87287888079881 47.177586680194366, 10.681768081150949 45.12704523745924 M11.5 46 C5.73575187039872 45.64520268328488, 1.5787248443812132 40.79362979220847, -0.798685209825635 33.16623650677502 M9.637033028528094 46.721320079639554 C2.541264251464357 47.93334910264239, -0.10546634932979959 43.40051816791917, -1.3322010769508776 35.82181450417265 M1.0180998910218477 35.19983951561153 C2.0102127183321863 30.87516223741695, 1.4437706459406763 22.804068867303428, 1.5692009199410677 10.397606475278735 M0.3697241460904479 35.45425593201071 C0.8627701310347766 28.673276420962065, -0.6459681185055524 25.352739452943204, 0.892612180672586 10.782573246397078 M0 11.5 C1.0876489114016294 5.733935601388414, 3.8054146201660233 0.3357967007905245, 9.686353666707873 1.4778456557542086 M1.2425438594073057 10.334637450054288 C-1.6930975778959692 4.520150717006375, 4.99526061474656 -0.40819890210404997, 10.102004306111485 -0.6501396925188601" stroke="#148ecb" stroke-width="1" fill="none"></path></g><g transform="translate(108 15.5) rotate(0 64.43478260869563 19)"><text x="0" y="27.000000000000007" font-family="Virgil, Segoe UI Emoji" font-size="29.739130434782606px" fill="#ffffff" text-anchor="start" style="white-space: pre;" direction="ltr">essential</text></g></svg>