<svg version="1.1" xmlns="http://www.w3.org/2000/svg" viewBox="0 0 219.92415646767984 199.99299814875988" width="659.7724694030395" height="599.9789944462797">
  <!-- svg-source:excalidraw -->
  
  <defs>
    <style>
      @font-face {
        font-family: "Virgil";
        src: url("https://excalidraw.com/Virgil.woff2");
      }
      @font-face {
        font-family: "Cascadia";
        src: url("https://excalidraw.com/Cascadia.woff2");
      }
    </style>
  </defs>
  <g transform="translate(21.111124463763076 9.920095338163634) rotate(3.6885640625001344 94.42421059541402 38.572937696216215)"><path d="M93.54954424314201 1.0501607079058886 L189.15595251597466 39.84459614939988 L96.5007276814431 78.77178633208118 L0.3469677846878767 39.48193466849625" stroke="none" stroke-width="0" fill="#148ecb" fill-rule="evenodd"></path><path d="M96.89612388797104 -0.2038037497550249 C125.16450784024546 11.525521895229458, 156.64287047544954 25.148387155715017, 188.23869506172838 38.91002222709358 M95.49165134038776 0.5018518576398492 C127.52819312276321 13.088765329032453, 157.99092384784487 25.794078806604507, 189.74915932487698 38.530468673445284 M190.7423032885045 38.58273693732917 C165.91052598596275 46.93452716059819, 147.37172672862664 57.71231275836017, 94.74441826529801 75.95995959262095 M189.25076173614713 38.38046309445053 C167.50323677015103 48.534752968098154, 146.0404841351022 57.27183123191339, 95.91379760112613 77.06987935206584 M94.79384863562882 78.01336583117686 C68.67811850876845 67.1199505454432, 46.830081431188795 57.57079606569452, -1.2420878987759352 38.17503818683326 M94.33792351093143 78.05167156359843 C74.04780551327649 69.47249567169627, 54.214014963733725 61.00980270581451, 0.486754490993917 39.126034767366946 M0.5206450838595629 39.05884298495948 C26.99031634937041 28.999730824353172, 53.36333148350008 14.212863005278631, 95.65420508570969 -0.866307707503438 M0.08169491495937109 38.49524000380188 C22.290898335361852 30.116714080562815, 41.80593974023126 21.55781627469696, 95.6753644188866 0.5158640751615167" stroke="#05537a" stroke-width="4" fill="none"></path></g><g transform="translate(2.5223412614145673 32.97496627374079) rotate(330.4578055582728 57.5172766723324 83.56262912603738)"><path d="M58.568950502201915 -0.1903082113713026 L116.66688224051681 82.1481316704303 L58.46386334113777 166.27259831321783 L1.2520914357155561 83.70569342561066" stroke="none" stroke-width="0" fill="#148ecb" fill-rule="evenodd"></path><path d="M56.16495329327881 0.46041986159980297 C78.24873486356532 30.980640473705204, 97.05895585901482 56.98816882457999, 116.06016701210824 83.39734116010368 M58.316977753303945 0.8331297347322106 C78.39031570993939 29.396766947436614, 98.14208336928147 60.13107060253946, 115.98860232003567 84.89809012506157 M116.2808009957203 85.62036409787834 C99.74390962780751 105.10014438926093, 82.58961074663031 129.49019225638693, 57.96140212006867 167.9669960868115 M114.17820064195034 84.99868726823479 C99.24286079060707 107.86405111737177, 84.51422178116601 130.84389555655258, 57.36206217017025 167.2282745400945 M57.44416684098542 168.50283945915646 C36.96407302782249 137.14254764350937, 13.345301650057841 107.28074114175837, 1.9994721431285143 84.51982095651329 M57.86993594374508 166.80319877067006 C38.838512629597645 139.82343288261617, 21.358771968773766 115.51967171971678, -0.17518468294292688 83.6601696619764 M-1.7287769299000502 82.20881679467857 C19.786681632846598 56.77615020835773, 37.65894915085286 34.473081298191104, 59.51366406865418 -1.9217419940978289 M0.8445680579170585 84.1447237143293 C16.500729661472143 61.177962392885235, 33.42295161955059 36.71039114439859, 57.682243718765676 -0.4134514620527625" stroke="#05537a" stroke-width="4" fill="none"></path></g><g transform="translate(75.06563854802926 61.98539500357677) rotate(308.6346994851987 83.02292396509142 63.15486917743567)"><path d="M84.21024063043296 0.5254716295748949 L167.08687913993484 63.61752593703568 L85.59450664930046 126.7402067371852 L-0.8607173282653093 64.31384730525315" stroke="none" stroke-width="0" fill="#148ecb" fill-rule="evenodd"></path><path d="M85.78207552619278 -1.4322751481086016 C114.40275143394854 25.846520875789075, 149.60989540827745 51.46463492403165, 167.61263511533028 62.38421425037086 M84.6028814157471 -0.3111804714426398 C109.88575370413093 19.402651610402437, 137.79100025115218 40.914713087109895, 166.21169911993778 63.80278065893799 M164.32287786359078 62.51191553287208 C141.79447112479994 83.41347903525453, 115.9383115783251 101.50739959938736, 85.4568240661174 124.66423390817114 M166.91686903609073 63.05980327818543 C133.47024088008104 88.48268385994996, 101.90129555363814 112.24696200564898, 84.8050989350304 127.2404312073461 M83.32128739543259 128.17360328149266 C61.608751579508265 111.09160915689095, 40.70555480545767 94.53135334591202, 1.6572113651782274 63.249808518216014 M84.85515563096851 125.52720083587089 C60.51389881046939 109.02001974989744, 36.51537273610461 92.79230989484068, -0.21285794768482447 63.13400730583817 M1.6871257442981005 63.24680301360786 C21.243976656794548 46.10476857256144, 45.53039235107601 30.86699655484408, 84.86405503936112 0.8008050005882978 M-0.7414984563365579 63.12801417801529 C24.082103936411443 45.26749804630875, 46.5559549991414 28.5086355151236, 83.7751580318436 0.6533551225438714" stroke="#05537a" stroke-width="4" fill="none"></path></g><g transform="translate(133.61598111036517 108.03856560735429) rotate(354.04043712746176 27.5 17.5)"><text x="0" y="25" font-family="Virgil, Segoe UI Emoji" font-size="28px" fill="#05537a" text-anchor="start" style="white-space: pre;" direction="ltr">NPM</text></g></svg>